# xmcd CD database file
#
# Track frame offsets:
#	150
#	5433
#	24283
#	42605
#	56872
#	80410
#	96046
#	114321
#	134140
#
# Disc length: 2089 seconds
#
# Revision: 0
# Processed by: cddbd v1.5.2PL0 Copyright (c) Steve Scherf et al.
# Submitted via: CDex 1.70beta2
#
DISCID=73082709
DTITLE=Pizuya's Cell x MyonMyon - Chaoscillation Game
DYEAR=2008
DGENRE=東方アレンジ
TTITLE0=From the Eternity [封印されし神々]
TTITLE1=Night Maze [眠れる恐怖　～ Sleeping Terror]
TTITLE2=equinox [花映塚　～ Higan Retour]
TTITLE3=Puzzled New Days [恋色マジック]
TTITLE4=Heavy Metal Spark! [恋色マスタースパーク]
TTITLE5=Frenzy Moon [永遠の満月]
TTITLE6=Withered World... [ティアオイエツォン(withered leaf)]
TTITLE7=A Needle Returns... [アリスマエステラ]
TTITLE8=Steel Of Scarlet []
EXTD=YEAR: 2008
EXTT0=
EXTT1=
EXTT2=
EXTT3=
EXTT4=
EXTT5=
EXTT6=
EXTT7=
EXTT8=
PLAYORDER=
